<?xml version="1.0" encoding="utf-8"?>
<!-- Generator: Adobe Illustrator 25.2.1, SVG Export Plug-In . SVG Version: 6.00 Build 0)  -->
<svg version="1.1" id="Layer_1" xmlns="http://www.w3.org/2000/svg" xmlns:xlink="http://www.w3.org/1999/xlink" x="0px" y="0px"
	 viewBox="0 0 162 54" style="enable-background:new 0 0 162 54;" xml:space="preserve">
<path d="M8.2,42V6.6h11c5.4,0,9.7,1.6,13,4.9c3.3,3.3,4.9,7.6,4.9,12.8c0,5.3-1.7,9.6-4.9,12.8c-3.3,3.2-7.6,4.9-13,4.9H8.2z
	 M19.2,36.8c3.8,0,6.9-1.1,9.1-3.3c2.2-2.2,3.3-5.3,3.3-9.2c0-3.9-1.1-7-3.3-9.1c-2.2-2.2-5.3-3.3-9.1-3.3h-5.6v24.9H19.2z"/>
<path d="M51.2,42.8c-3.6,0-6.7-1.2-9-3.7c-2.4-2.5-3.6-5.6-3.6-9.3s1.2-6.9,3.5-9.3c2.4-2.5,5.4-3.7,9.1-3.7c3.6,0,6.6,1.2,9,3.7
	c2.4,2.5,3.6,5.6,3.6,9.3c0,3.8-1.2,6.9-3.6,9.3C57.8,41.5,54.8,42.8,51.2,42.8z M51.2,21.8c-2,0-3.7,0.8-5.1,2.2
	c-1.4,1.5-2.1,3.4-2.1,5.8c0,2.4,0.7,4.3,2.1,5.8c1.4,1.5,3.1,2.2,5.1,2.2c2.1,0,3.7-0.7,5.1-2.2c1.4-1.5,2.1-3.4,2.1-5.8
	c0-2.4-0.7-4.3-2.1-5.8C54.9,22.5,53.2,21.8,51.2,21.8z"/>
<path d="M77.7,53.2c-1.3,0-2.6-0.2-3.8-0.5c-1.2-0.4-2.3-0.9-3.3-1.5c-1-0.6-1.8-1.4-2.5-2.3C67.4,48,66.8,47,66.4,46l-0.2-0.4
	l5.1-2.1l0.2,0.5c0.4,1.3,1.2,2.3,2.3,3.1c1.1,0.8,2.4,1.2,3.8,1.2c2.3,0,4-0.7,5.3-2c1.3-1.3,1.9-3.2,1.9-5.6v-1
	c-0.8,0.9-1.7,1.6-2.8,2.2c-1.5,0.8-3.1,1.1-4.9,1.1c-3.2,0-6-1.3-8.3-3.8c-2.3-2.5-3.4-5.7-3.4-9.3c0-3.6,1.1-6.7,3.4-9.2
	c2.3-2.5,5.1-3.8,8.3-3.8c1.7,0,3.4,0.4,4.9,1.1c1.1,0.6,2.1,1.3,2.8,2.2v-2.5h5.2v23c0,3.9-1.1,7-3.4,9.2
	C84.4,52,81.4,53.2,77.7,53.2z M77.9,21.8c-2,0-3.6,0.7-5,2.2c-1.4,1.5-2,3.4-2,5.8c0,2.4,0.7,4.3,2,5.8c1.4,1.5,3,2.2,5,2.2
	c2,0,3.7-0.7,5-2.2c1.4-1.5,2-3.4,2-5.8c0-2.3-0.7-4.3-2-5.8C81.5,22.5,79.9,21.8,77.9,21.8z"/>
<path d="M105.1,53.2c-1.3,0-2.6-0.2-3.8-0.5c-1.2-0.4-2.3-0.9-3.3-1.5c-1-0.6-1.8-1.4-2.5-2.3C94.8,48,94.2,47,93.8,46l-0.2-0.4
	l5.1-2.1l0.2,0.5c0.4,1.3,1.2,2.3,2.3,3.1c1.1,0.8,2.4,1.2,3.8,1.2c2.3,0,4-0.7,5.3-2c1.2-1.3,1.9-3.2,1.9-5.6v-1
	c-0.8,0.9-1.7,1.6-2.8,2.2c-1.5,0.8-3.1,1.1-4.9,1.1c-3.2,0-6-1.3-8.3-3.8c-2.3-2.5-3.4-5.7-3.4-9.3c0-3.6,1.1-6.7,3.4-9.2
	c2.3-2.5,5.1-3.8,8.3-3.8c1.7,0,3.4,0.4,4.9,1.1c1.1,0.6,2.1,1.3,2.8,2.2v-2.5h5.2v23c0,3.9-1.1,7-3.4,9.2
	C111.8,52,108.8,53.2,105.1,53.2z M105.3,21.8c-2,0-3.6,0.7-5,2.2c-1.4,1.5-2,3.4-2,5.8c0,2.4,0.7,4.3,2,5.8c1.4,1.5,3,2.2,5,2.2
	c2,0,3.7-0.7,5-2.2c1.4-1.5,2-3.4,2-5.8c0-2.3-0.7-4.3-2-5.8C108.9,22.5,107.3,21.8,105.3,21.8z"/>
<rect x="122.6" y="6.6" width="5.4" height="35.4"/>
<path d="M144.3,42.7c-1.6,0-3.2-0.4-4.8-1c-3.1-1.4-5.4-3.8-6.8-7.3c-1.4-3.4-1.6-6.7-0.4-9.9c1.1-3.2,3.4-5.4,6.6-6.8
	c1.7-0.7,3.3-1.1,4.9-1.1c1.5,0,3,0.3,4.5,1c2.9,1.3,5.1,4,6.7,7.8l0.3,0.9l-17,7c0.9,1.7,2.1,2.9,3.8,3.5c0.9,0.3,1.7,0.5,2.6,0.5
	c0.9,0,1.8-0.2,2.8-0.6c2.4-1,3.8-3,4.2-6l0.1-0.5l5.4,0.3l0,0.5c-0.2,2.3-1,4.4-2.4,6.2c-1.3,1.8-3.2,3.2-5.4,4.2
	C147.5,42.3,145.9,42.7,144.3,42.7z M143.7,21.7c-0.9,0-1.9,0.2-2.9,0.6c-1.4,0.6-2.5,1.5-3.1,2.8c-0.6,1.2-0.8,2.4-0.7,3.8
	l11.3-4.7c-0.7-1.1-1.6-1.8-2.8-2.3C145,21.8,144.4,21.7,143.7,21.7z"/>
</svg>
