<?xml version="1.0" encoding="utf-8"?>
<!-- Generator: Adobe Illustrator 25.2.1, SVG Export Plug-In . SVG Version: 6.00 Build 0)  -->
<svg version="1.1" id="Layer_1" xmlns="http://www.w3.org/2000/svg" xmlns:xlink="http://www.w3.org/1999/xlink" x="0px" y="0px"
	 viewBox="0 0 288 288" style="enable-background:new 0 0 288 288;" xml:space="preserve">
<style type="text/css">
	.st0{fill-rule:evenodd;clip-rule:evenodd;}
	.st1{fill-rule:evenodd;clip-rule:evenodd;fill:#3C4043;}
	.st2{fill:#80868B;}
	.st3{fill:none;}
	.st4{fill-rule:evenodd;clip-rule:evenodd;fill:#202124;}
	.st5{opacity:0.3;fill-rule:evenodd;clip-rule:evenodd;enable-background:new    ;}
	.st6{fill:none;stroke:#000000;stroke-width:2;}
	.st7{clip-path:url(#SVGID_2_);fill:none;stroke:#000000;stroke-width:4;stroke-linecap:round;stroke-linejoin:bevel;}
	.st8{clip-path:url(#SVGID_4_);fill:none;stroke:#000000;stroke-width:4;stroke-linecap:round;stroke-linejoin:bevel;}
</style>
<g transform="translate(0,2106)">
	<path class="st0" d="M56-1982h14v-2H56V-1982z M56-1986h14v-2H56V-1986z M56-1996v2h14v-2H56z M56-1990h14v-2H56V-1990z"/>
</g>
<g transform="translate(20,4214)">
	<path class="st0" d="M-6.8-4117.5c0-1.9-1.6-3.5-3.5-3.5h-5.5v12h6.2c1.8,0,3.2-1.5,3.2-3.2c0-1.3-0.8-2.4-1.9-2.9
		C-7.3-4115.8-6.8-4116.6-6.8-4117.5z M-10.8-4119c0.8,0,1.5,0.7,1.5,1.5s-0.7,1.5-1.5,1.5h-2v-3H-10.8z M-12.8-4111v-3h2.5
		c0.8,0,1.5,0.7,1.5,1.5s-0.7,1.5-1.5,1.5H-12.8z"/>
</g>
<g transform="translate(0,5302)">
	<path class="st0" d="M144-5248v4h-1v10h1v4h-4v-1h-10v1h-4v-4h1v-10h-1v-4h4v1h10v-1H144z M127-5247v2h2v-2H127z M141-5247v2h2v-2
		H141z M127-5233v2h2v-2H127z M141-5233v2h2v-2H141z M130-5233h10v-1h1v-10h-1v-1h-10v1h-1v10h1V-5233z M131-5243h8v2h-8V-5243z
		 M134-5241h2v6h-2V-5241z"/>
</g>
<g transform="translate(0,5302)">
	<path class="st0" d="M162-5158v4h-1v10h1v4h-4v-1h-10v1h-4v-4h1v-10h-1v-4h4v1h10v-1H162z M145-5157v2h2v-2H145z M159-5157v2h2v-2
		H159z M145-5143v2h2v-2H145z M159-5143v2h2v-2H159z M148-5143h10v-1h1v-10h-1v-1h-10v1h-1v10h1V-5143z M149-5153h8v2h-8V-5153z
		 M152-5151h2v6h-2V-5151z"/>
</g>
<g transform="translate(26,6066)">
	<path class="st0" d="M123.7-5989c-0.3,0.6-1,1-1.7,1c-1.1,0-2-0.9-2-2s0.9-2,2-2c0.7,0,1.4,0.4,1.7,1h6.3v2H123.7z M124-5984
		c-0.1,0-0.2,0-0.3,0c-0.3,0-0.5,0.1-0.8,0.2c-0.6,0.2-0.9,0.6-0.9,1.3s0.3,1,0.9,1.3c0.2,0.1,0.5,0.2,0.8,0.2c0.2,0,0.3,0,0.3,0
		h6.3c0.4-0.6,1-1,1.7-1c1.1,0,2,0.9,2,2s-0.9,2-2,2c-0.7,0-1.4-0.4-1.7-1H124v-2l0,0v2c-0.5,0-1.2-0.1-1.9-0.4
		c-1.3-0.5-2.1-1.6-2.1-3.1s0.8-2.6,2.1-3.1c0.7-0.3,1.4-0.4,1.9-0.4V-5984L124-5984v-2h6v2H124z M130.3-5989c0.3,0,0.5,0.1,0.8,0.2
		c0.6,0.2,0.9,0.6,0.9,1.3s-0.3,1-0.9,1.3c-0.2,0.1-0.5,0.2-0.8,0.2c-0.2,0-0.3,0-0.3,0v2c0.5,0,1.2-0.1,1.9-0.4
		c1.3-0.5,2.1-1.6,2.1-3.1s-0.8-2.6-2.1-3.1c-0.7-0.3-1.4-0.4-1.9-0.4v2C130.1-5989,130.2-5989,130.3-5989z"/>
</g>
<g transform="translate(20,6390)">
	<path class="st0" d="M162-6269h2v0.5h-1v1h1v0.5h-2v1h3v-4h-3V-6269z M162-6274h1.8l-1.8,2.1v0.9h3v-1h-1.8l1.8-2.1v-0.9h-3V-6274z
		 M163-6276h1v-4h-2v1h1V-6276z M167-6279v2h9v-2H167z M167-6267h9v-2h-9V-6267z M167-6272h9v-2h-9V-6272z"/>
</g>
<g transform="translate(20,6390)">
	<path class="st0" d="M216-6215h2v0.5h-1v1h1v0.5h-2v1h3v-4h-3V-6215z M216-6220h1.8l-1.8,2.1v0.9h3v-1h-1.8l1.8-2.1v-0.9h-3V-6220z
		 M217-6222h1v-4h-2v1h1V-6222z M221-6225v2h9v-2H221z M221-6213h9v-2h-9V-6213z M221-6218h9v-2h-9V-6218z"/>
</g>
<g transform="translate(0,2624)">
	<path class="st0" d="M165.5-2546.8c0.5-0.5,1.1-1,1.3-0.9c0.4,0.1,0,0.8-0.2,1.1s-2.1,2.9-2.1,4.7c0,1,0.4,1.8,1,2.2s1.3,0.5,2,0.3
		c0.8-0.2,1.5-1.1,2.3-2.1c0.9-1.1,2.1-2.6,3.1-2.6c1.2,0,1.2,0.8,1.3,1.4c-2.8,0.5-4,2.8-4,4c0,1.3,1.1,2.3,2.4,2.3
		c1.2,0,3.2-1,3.5-4.6h1.8v-1.9H176c-0.1-1.2-0.8-3.1-3-3.1c-1.7,0-3.1,1.4-3.7,2.1c-0.4,0.5-1.5,1.9-1.7,2
		c-0.2,0.2-0.5,0.6-0.8,0.6s-0.5-0.6-0.3-1.4c0.3-0.8,1.1-2.1,1.4-2.6c0.6-0.9,1-1.4,1-2.5c0-1.6-1.2-2.2-1.9-2.2
		c-1,0-1.9,0.8-2,0.9c-0.3,0.3-0.5,0.5-0.7,0.7L165.5-2546.8L165.5-2546.8z M172.5-2538.1c-0.2,0-0.6-0.2-0.6-0.5
		c0-0.4,0.5-1.6,2.2-2.1C173.9-2538.7,173-2538.1,172.5-2538.1L172.5-2538.1z"/>
</g>
<g transform="translate(54,4436)">
	<path class="st0" d="M139.7-4377h2.3c0.6,0,1,0.5,1,1v10c0,0.5-0.5,1-1,1h-10c-0.6,0-1-0.5-1-1v-2.3c0.6,0.2,1.3,0.3,2,0.3v1h8v-8
		h-1C140-4375.7,139.9-4376.4,139.7-4377z M133-4369c3.3,0,6-2.7,6-6s-2.7-6-6-6s-6,2.7-6,6S129.7-4369,133-4369z M133-4371
		c2.2,0,4-1.8,4-4s-1.8-4-4-4s-4,1.8-4,4S130.8-4371,133-4371z"/>
</g>
<g transform="translate(54,4436)">
	<path class="st0" d="M139.7-4287h2.3c0.6,0,1,0.5,1,1v10c0,0.5-0.5,1-1,1h-10c-0.6,0-1-0.5-1-1v-2.3c0.6,0.2,1.3,0.3,2,0.3v1h8v-8
		h-1C140-4285.7,139.9-4286.4,139.7-4287z M133-4279c3.3,0,6-2.7,6-6s-2.7-6-6-6s-6,2.7-6,6S129.7-4279,133-4279z M133-4281
		c2.2,0,4-1.8,4-4s-1.8-4-4-4s-4,1.8-4,4S130.8-4281,133-4281z"/>
</g>
<g transform="translate(0,1228)">
	<path class="st0" d="M114-992.2c0-0.5-0.4-1-1-1H99c-0.6,0-1,0.5-1,1v12c0,0.5,0.4,1,1,1h11.5l3.5,3V-992.2z M111-982.2h-10v-2h10
		V-982.2z M111-985.2h-10v-2h10V-985.2z M111-988.2h-10v-2h10V-988.2z"/>
</g>
<g transform="translate(40,3308)">
	<g transform="translate(2 2)">
		<rect x="162.8" y="-3199" class="st0" width="9" height="2"/>
		<rect x="162.8" y="-3194" class="st0" width="9" height="2"/>
		<rect x="162.8" y="-3189" class="st0" width="9" height="2"/>
		<circle class="st0" cx="159.8" cy="-3198" r="1.5"/>
		<circle class="st0" cx="159.8" cy="-3193" r="1.5"/>
		<circle class="st0" cx="159.8" cy="-3188" r="1.5"/>
	</g>
</g>
<g transform="translate(40,3308)">
	<g transform="translate(2 2)">
		<rect x="216.8" y="-3145" class="st0" width="9" height="2"/>
		<rect x="216.8" y="-3140" class="st0" width="9" height="2"/>
		<rect x="216.8" y="-3135" class="st0" width="9" height="2"/>
		<circle class="st0" cx="213.8" cy="-3144" r="1.5"/>
		<circle class="st0" cx="213.8" cy="-3139" r="1.5"/>
		<circle class="st0" cx="213.8" cy="-3134" r="1.5"/>
	</g>
</g>
<g transform="translate(20,4868)">
	<path class="st0" d="M-18-4744h10v-2h-10V-4744z M-8-4754h-10v2h10V-4754z M-18-4758v2h14v-2H-18z M-18-4748h14v-2h-14V-4748z"/>
</g>
<g transform="translate(20,4868)">
	<path class="st0" d="M180-4690h10v-2h-10V-4690z M190-4700h-10v2h10V-4700z M180-4704v2h14v-2H180z M180-4694h14v-2h-14V-4694z"/>
</g>
<g transform="translate(40,1208)">
	<path class="st1" d="M211-979.9l-4,4h8L211-979.9z M211-961.9l4-4h-8L211-961.9z"/>
	<path class="st2" d="M202-973.9h18v2h-18V-973.9z M202-969.9h18v2h-18V-969.9z"/>
</g>
<g transform="translate(0,4034)">
	<g>
		<path class="st3" d="M221-3773.4h24v24h-24V-3773.4z"/>
		<path class="st4" d="M240-3770.4h-14c-1.1,0-2,0.9-2,2v14c0,1.1,0.9,2,2,2h14c1.1,0,2-0.9,2-2v-14
			C242-3769.5,241.1-3770.4,240-3770.4z M240-3757.4h-14v-8h14V-3757.4z"/>
	</g>
</g>
<g transform="translate(52,2311)">
	<g>
		<polygon class="st3" points="38,-2131 56,-2131 56,-2113 38,-2113 		"/>
		<path class="st0" d="M42-2127h-3v2h3v6c0,1.1,0.9,2,2,2h6v3h2v-3h3v-2H44v-11h-2V-2127z M45-2125v-2h5c1.1,0,2,0.9,2,2v5h-2v-5H45
			z"/>
	</g>
</g>
<g transform="translate(42,944)">
	<path class="st0" d="M41.5-798h-8c-0.5,0-1,0.5-1,1v3c0,0.5,0.5,1,1,1h8c0.5,0,1-0.5,1-1v-1h1v3h-7v8h2v-6h7v-6h-3v-1
		C42.5-797.5,42-798,41.5-798z"/>
</g>
<g transform="translate(0,5150)">
	<path class="st0" d="M236-5033h14v2h-14V-5033z M236-5039h14v4h-14V-5039z M236-5028h14v1h-14V-5028z"/>
</g>
<g transform="translate(46,3328)">
	<path class="st0" d="M52-3208h8v-2h-8V-3208z M52-3212h8v-2h-8V-3212z M60-3206H46v2h14V-3206z M46.5-3211l3.5,3.5v-7L46.5-3211z
		 M46-3218v2h14v-2H46z"/>
</g>
<g transform="translate(46,3328)">
	<path class="st0" d="M232-3154h8v-2h-8V-3154z M232-3158h8v-2h-8V-3158z M240-3152h-14v2h14V-3152z M226.5-3157l3.5,3.5v-7
		L226.5-3157z M226-3164v2h14v-2H226z"/>
</g>
<g transform="translate(40,4294)">
	<path d="M-25.8-4236.2v10.5h-10.5v-10.5H-25.8 M-25.8-4237.8h-10.5c-0.8,0-1.5,0.7-1.5,1.5v10.5c0,0.8,0.7,1.5,1.5,1.5h10.5
		c0.8,0,1.5-0.7,1.5-1.5v-10.5C-24.2-4237.1-24.9-4237.8-25.8-4237.8z M-29.4-4231.1l-2.2,2.9l-1.6-1.9l-2.2,2.9h9L-29.4-4231.1z"/>
</g>
<g transform="translate(40,4294)">
	<path d="M136.2-4146.2v10.5h-10.5v-10.5H136.2 M136.2-4147.8h-10.5c-0.8,0-1.5,0.7-1.5,1.5v10.5c0,0.8,0.7,1.5,1.5,1.5h10.5
		c0.8,0,1.5-0.7,1.5-1.5v-10.5C137.8-4147.1,137.1-4147.8,136.2-4147.8z M132.6-4141.1l-2.2,2.9l-1.6-1.9l-2.2,2.9h9L132.6-4141.1z"
		/>
</g>
<g transform="translate(20,4294)">
	<path class="st0" d="M197.9-4213c0-1.2,0.9-2.1,2.1-2.1h4v-1.9h-4c-2.2,0-4,1.8-4,4s1.8,4,4,4h4v-1.9h-4
		C198.8-4210.9,197.9-4211.8,197.9-4213L197.9-4213z M210-4217h-4v1.9h4c1.2,0,2.1,0.9,2.1,2.1s-0.9,2.1-2.1,2.1h-4v1.9h4
		c2.2,0,4-1.8,4-4S212.2-4217,210-4217L210-4217z M202-4212h6v-2h-6V-4212L202-4212z"/>
</g>
<g transform="translate(20,4294)">
	<path class="st0" d="M143.9-4123c0-1.2,0.9-2.1,2.1-2.1h4v-1.9h-4c-2.2,0-4,1.8-4,4s1.8,4,4,4h4v-1.9h-4
		C144.8-4120.9,143.9-4121.8,143.9-4123L143.9-4123z M156-4127h-4v1.9h4c1.2,0,2.1,0.9,2.1,2.1s-0.9,2.1-2.1,2.1h-4v1.9h4
		c2.2,0,4-1.8,4-4S158.2-4127,156-4127L156-4127z M148-4122h6v-2h-6V-4122L148-4122z"/>
</g>
<g transform="translate(20,4294)">
	<path class="st0" d="M71.9-4231c0-1.2,0.9-2.1,2.1-2.1h4v-1.9h-4c-2.2,0-4,1.8-4,4s1.8,4,4,4h4v-1.9h-4
		C72.8-4228.9,71.9-4229.8,71.9-4231L71.9-4231z M84-4235h-4v1.9h4c1.2,0,2.1,0.9,2.1,2.1s-0.9,2.1-2.1,2.1h-4v1.9h4
		c2.2,0,4-1.8,4-4S86.2-4235,84-4235L84-4235z M76-4230h6v-2h-6V-4230L76-4230z"/>
</g>
<g transform="translate(52,3890)">
	<path class="st0" d="M31.8-3855h-9.2c-0.8,0-0.6,0-0.6,0c-0.6,0-1-0.4-1-1v-12c0-0.6,0.5-1,1-1c0,0,0.9,0,1.4,0H26c0,0,0-2,2-2
		s2,2,2,2h4c0.6,0,1,0.4,1,1c0,0,0-0.3,0,0.5v1.5h-2v-1h-1v1h-8v-1h-1v10h7v2H31.8z M27-3869h2v1h-2V-3869z M35-3865h-2
		c-1.1,0-2,0.9-2,2v8h2v-2h2v2h2v-8C37-3864.1,36.1-3865,35-3865z M33-3859h2v-4h-2V-3859z"/>
</g>
<g transform="translate(0,498)">
	<polygon class="st0" points="25,-405 25,-403 27.6,-403 23.9,-395 21,-395 21,-393 29,-393 29,-395 26.4,-395 30.1,-403 33,-403 
		33,-405 	"/>
</g>
<g transform="translate(0,2604)">
	<path d="M70.5-2505.6h-15v1.5h8.7c0.1,0.1,0.2,0.1,0.3,0.2c0.4,0.3,0.9,0.8,1,1.3c0.1,0.3,0,0.7-0.1,1c-0.1,0.2-0.2,0.4-0.4,0.6
		c-0.2,0.2-0.4,0.3-0.7,0.4c-0.3,0.1-0.7,0.1-1.1,0.1c-0.4,0-0.8-0.1-1.1-0.1c-0.3-0.1-0.6-0.2-0.9-0.4s-0.5-0.4-0.6-0.8
		c-0.1-0.2-0.2-0.5-0.2-0.8h-1.9c0,0.6,0.2,1.1,0.4,1.5c0.2,0.5,0.6,0.9,1,1.3s0.9,0.6,1.5,0.7c0.5,0.2,1.2,0.2,1.8,0.2
		c0.5,0,1.1-0.1,1.6-0.2c0.5-0.1,1-0.3,1.4-0.6s0.7-0.7,1-1.1c0.2-0.4,0.4-1,0.4-1.6c0-0.3-0.1-0.6-0.1-0.9
		c-0.1-0.3-0.2-0.5-0.3-0.8h3.5L70.5-2505.6L70.5-2505.6z M59.1-2506.7h2.8c-0.3-0.1-0.5-0.2-0.7-0.4s-0.4-0.6-0.4-0.9
		c0-0.3,0.1-0.5,0.2-0.7c0.1-0.2,0.3-0.3,0.5-0.5s0.4-0.2,0.7-0.2c0.2-0.1,0.5-0.1,0.7-0.1c0.7,0,1.2,0.1,1.7,0.5
		c0.4,0.3,0.7,0.8,0.7,1.6h1.9c0-0.6-0.1-1.1-0.3-1.6c-0.2-0.5-0.5-0.8-0.9-1.1s-0.8-0.5-1.3-0.7s-1.1-0.2-1.6-0.2s-1,0.1-1.5,0.2
		s-0.9,0.3-1.3,0.6s-0.7,0.6-0.9,1.1c-0.2,0.4-0.3,0.9-0.3,1.5C59.1-2507.3,59.1-2507,59.1-2506.7
		C59-2506.8,59.1-2506.8,59.1-2506.7z"/>
</g>
<g transform="translate(46,6106)">
	<path class="st0" d="M55-6085c0,0,0-2-2-2s-2,2-2,2h-4c-0.5,0-1,0.5-1,1v12c0,0.6,0.4,1,1,1c0,0-0.3,0,0.6,0h10.9
		c0.8,0,0.5,0,0.5,0c0.5,0,1-0.4,1-1v-11.5c0-0.8,0-0.5,0-0.5c0-0.5-0.4-1-1-1H55L55-6085z M52-6085h2v1h-2V-6085z M48-6073v-10h1v1
		h8v-1h1v10H48z"/>
</g>
<g transform="translate(52,5256)">
	<path class="st0" d="M-21.4-5228.1l-2.6,2.6h7v-7l-3,3c-1.5-1.2-3.3-2-5.4-2c-3.5,0-6.4,2.1-7.7,5l2,1c0.9-2.4,3.1-3.9,5.7-4
		C-23.9-5229.5-22.5-5228.9-21.4-5228.1z"/>
</g>
<g transform="translate(20,1350)">
	<path class="st0" d="M38.5-1272.1c-0.2,0-0.3,0.1-0.5,0.1c-1.1,0-2-0.9-2-2s0.9-2,2-2s2,0.9,2,2c0,0.2,0,0.3-0.1,0.5l7.5,7.6
		c0.2,0,0.3-0.1,0.5-0.1c1.1,0,2,0.9,2,2s-0.9,2-2,2s-2-0.9-2-2c0-0.2,0-0.3,0.1-0.5L38.5-1272.1z"/>
</g>
<g transform="translate(0,4968)">
	<path class="st0" d="M120.3-4883H120c-1.1,0-2-0.9-2-2v-4c0-2.2-1.8-4-4-4h-0.3c-0.3-0.6-1-1-1.7-1c-1.1,0-2,0.9-2,2s0.9,2,2,2
		c0.7,0,1.4-0.4,1.7-1h0.3c1.1,0,2,0.9,2,2v4c0,2.2,1.8,4,4,4h0.3c0.3,0.6,1,1,1.7,1c1.1,0,2-0.9,2-2s-0.9-2-2-2
		C121.3-4884,120.6-4883.6,120.3-4883z"/>
</g>
<g transform="translate(20,4968)">
	<path d="M23.2-4944.3c0.2-0.4,0.3-0.8,0.3-1.2c0-1.7-1.3-3-3-3s-3,1.3-3,3s1.3,3,3,3c0.4,0,0.9-0.1,1.2-0.3l1.8,1.8l-1.8,1.8
		c-0.4-0.2-0.8-0.3-1.2-0.3c-1.7,0-3,1.3-3,3s1.3,3,3,3s3-1.3,3-3c0-0.4-0.1-0.9-0.3-1.2l1.8-1.8l5.2,5.2h2.2v-0.8L23.2-4944.3z
		 M20.5-4944c-0.8,0-1.5-0.7-1.5-1.5s0.7-1.5,1.5-1.5s1.5,0.7,1.5,1.5S21.3-4944,20.5-4944z M20.5-4935c-0.8,0-1.5-0.7-1.5-1.5
		s0.7-1.5,1.5-1.5s1.5,0.7,1.5,1.5S21.3-4935,20.5-4935z M25-4940.6c-0.2,0-0.4-0.2-0.4-0.4s0.2-0.4,0.4-0.4s0.4,0.2,0.4,0.4
		S25.2-4940.6,25-4940.6z M30.2-4947.8l-4.5,4.5l1.5,1.5l5.2-5.2v-0.8H30.2z"/>
</g>
<g transform="translate(40,2808)">
	<path class="st0" d="M42-2688h-8v-2h8V-2688z M42-2692h-8v-2h8V-2692z M34-2686h14v2H34V-2686z M47.5-2691l-3.5,3.5v-7L47.5-2691z
		 M48-2698v2H34v-2H48z"/>
</g>
<g transform="translate(40,2808)">
	<path class="st0" d="M258-2634h-8v-2h8V-2634z M258-2638h-8v-2h8V-2638z M250-2632h14v2h-14V-2632z M263.5-2637l-3.5,3.5v-7
		L263.5-2637z M264-2644v2h-14v-2H264z"/>
</g>
<g transform="translate(52,2251)">
	<path class="st0" d="M196.6-2177h-11.2c-0.8,0-1.4,0.6-1.4,1.4v12.6l3-3h9.6c0.8,0,1.4-0.5,1.4-1.2v-8.4
		C198-2176.4,197.4-2177,196.6-2177z M196.5-2167.5h-11v-8h11V-2167.5z"/>
	<path d="M194-2170.8h-2.2v2.2h-1.5v-2.2H188v-1.5h2.2v-2.2h1.5v2.2h2.2v1.5H194z"/>
</g>
<g transform="translate(52,2251)">
	<path class="st0" d="M178.6-2105h-11.2c-0.8,0-1.4,0.6-1.4,1.4v12.6l3-3h9.6c0.8,0,1.4-0.5,1.4-1.2v-8.4
		C180-2104.4,179.4-2105,178.6-2105z M178.5-2095.5h-11v-8h11V-2095.5z"/>
	<path d="M176-2098.8h-2.2v2.2h-1.5v-2.2H170v-1.5h2.2v-2.2h1.5v2.2h2.2v1.5H176z"/>
</g>
<g transform="translate(52,2251)">
	<path class="st0" d="M142.6-2087h-11.2c-0.8,0-1.4,0.6-1.4,1.4v12.6l3-3h9.6c0.8,0,1.4-0.5,1.4-1.2v-8.4
		C144-2086.4,143.4-2087,142.6-2087z M142.5-2077.5h-11v-8h11V-2077.5z"/>
	<path d="M140-2080.8h-2.2v2.2h-1.5v-2.2H134v-1.5h2.2v-2.2h1.5v2.2h2.2v1.5H140z"/>
</g>
<g transform="translate(20,4294)">
	<path class="st0" d="M35.9-4105c0-1.2,0.9-2.1,2.1-2.1h4v-1.9h-4c-2.2,0-4,1.8-4,4s1.8,4,4,4h4v-1.9h-4
		C36.8-4102.9,35.9-4103.8,35.9-4105L35.9-4105z M48-4109h-4v1.9h4c1.2,0,2.1,0.9,2.1,2.1s-0.9,2.1-2.1,2.1h-4v1.9h4
		c2.2,0,4-1.8,4-4S50.2-4109,48-4109L48-4109z M40-4104h6v-2h-6V-4104L40-4104z"/>
</g>
<g transform="translate(52,2251)">
	<path class="st0" d="M34.6-2069H23.4c-0.8,0-1.4,0.6-1.4,1.4v12.6l3-3h9.6c0.8,0,1.4-0.5,1.4-1.2v-8.4
		C36-2068.4,35.4-2069,34.6-2069z M34.5-2059.5h-11v-8h11V-2059.5z"/>
	<path d="M32-2062.8h-2.2v2.2h-1.5v-2.2H26v-1.5h2.2v-2.2h1.5v2.2H32V-2062.8z"/>
</g>
<g transform="translate(20,5110)">
	<path class="st0" d="M82.3-5025H80v-10h-4.3c-0.3-0.6-1-1-1.7-1c-1.1,0-2,0.9-2,2s0.9,2,2,2c0.7,0,1.4-0.4,1.7-1H78v10h4.3
		c0.3,0.6,1,1,1.7,1c1.1,0,2-0.9,2-2s-0.9-2-2-2C83.3-5026,82.6-5025.6,82.3-5025z"/>
</g>
<g transform="translate(20,4174)">
	<path d="M91-4061.5v-1.5h12v1.5H91z M94.3-4055.2l1.9-1.9v6.1h1.5v-6.1l1.9,1.9l1.1-1.1L97-4060l-3.8,3.8L94.3-4055.2z"/>
</g>
<g transform="translate(0,398)">
	<path class="st0" d="M5.4-370.1l2.6,2.6H1v-7l3,3c1.4-1.2,3.3-2,5.4-2c3.5,0,6.4,2.1,7.7,5l-2,1c-0.9-2.4-3.1-3.9-5.7-4
		C7.8-371.5,6.5-370.9,5.4-370.1z"/>
</g>
<g transform="translate(52,5256)">
	<path class="st0" d="M-3.4-5102.1l-2.6,2.6h7v-7l-3,3c-1.5-1.2-3.3-2-5.4-2c-3.5,0-6.4,2.1-7.7,5l2,1c0.9-2.4,3.1-3.9,5.7-4
		C-5.8-5103.5-4.5-5102.9-3.4-5102.1z"/>
</g>
<g transform="translate(0,398)">
	<path class="st0" d="M23.4-244.1l2.6,2.6h-7v-7l3,3c1.5-1.2,3.3-2,5.4-2c3.5,0,6.4,2.1,7.7,5l-2,1c-0.9-2.4-3.1-3.9-5.7-4
		C25.9-245.4,24.5-244.9,23.4-244.1z"/>
</g>
<g transform="translate(52,1994)">
	<path class="st0" d="M-10.5-1978h7c0.8,0,1.5-0.6,1.5-1.4v-8.6h-10v8.6C-12-1978.6-11.3-1978-10.5-1978z M-3.9-1991l-0.8-1h-4.8
		l-0.8,1H-13v2h12v-2H-3.9z"/>
</g>
<g transform="translate(0,2330)">
	<path class="st0" d="M100.6-2174.6c-0.9,0.8-2.2,1.3-3.5,1.3c-3,0-5.5-2.5-5.5-5.5s2.5-5.5,5.5-5.5s5.5,2.5,5.5,5.5
		c0,1.3-0.5,2.6-1.3,3.5l0.2,0.2h0.8l4,4l-1.5,1.5l-4-4v-0.8L100.6-2174.6z M97.1-2174.9c2.2,0,4-1.8,4-4s-1.8-4-4-4s-4,1.8-4,4
		S94.9-2174.9,97.1-2174.9z M99.6-2178.4h-2v2h-1v-2h-2v-1h2v-2h1v2h2V-2178.4"/>
</g>
<g transform="translate(40,6024)">
	<path class="st0" d="M88.4-5752.1v-5h-4v5h-3.2l5.2,5l5.2-5H88.4z M81.4-5744.1h10v-2h-10V-5744.1z"/>
</g>
<g transform="translate(26,6286)">
	<path d="M19-6183.2c2.5,0,4.5-2,4.5-4.5v-6h-1.9v6c0,1.5-1.2,2.6-2.6,2.6s-2.6-1.2-2.6-2.6v-6h-1.9v6
		C14.5-6185.3,16.5-6183.2,19-6183.2z M13.8-6181.8v1.5h10.5v-1.5H13.8z"/>
</g>
<g transform="translate(20,4214)">
	<path class="st0" d="M65.2-4045.5c0-1.9-1.6-3.5-3.5-3.5h-5.5v12h6.2c1.8,0,3.2-1.5,3.2-3.2c0-1.3-0.8-2.4-1.9-2.9
		C64.7-4043.8,65.2-4044.6,65.2-4045.5z M61.2-4047c0.8,0,1.5,0.7,1.5,1.5s-0.7,1.5-1.5,1.5h-2v-3H61.2z M59.2-4039v-3h2.5
		c0.8,0,1.5,0.7,1.5,1.5s-0.7,1.5-1.5,1.5H59.2z"/>
</g>
<g transform="translate(0,498)">
	<polygon class="st0" points="97,-333 97,-331 99.6,-331 95.9,-323 93,-323 93,-321 101,-321 101,-323 98.4,-323 102.1,-331 
		105,-331 105,-333 	"/>
</g>
<g transform="translate(26,6286)">
	<path d="M91-6111.2c2.5,0,4.5-2,4.5-4.5v-6h-1.9v6c0,1.5-1.2,2.6-2.6,2.6s-2.6-1.2-2.6-2.6v-6h-1.9v6
		C86.5-6113.3,88.5-6111.2,91-6111.2z M85.8-6109.8v1.5h10.5v-1.5H85.8z"/>
</g>
<g transform="translate(0,5634)">
	<path class="st0" d="M181.2-5379.4h-2.5v-3h-2v3h-2.5l3.5,3.5L181.2-5379.4L181.2-5379.4z M171.8-5374.4v2h12v-2H171.8
		L171.8-5374.4z M174.2-5367.4h2.5v3h2v-3h2.5l-3.5-3.5L174.2-5367.4L174.2-5367.4z"/>
</g>
<g transform="translate(0,3872)">
	<path class="st0" d="M149.4-3628.2v2h12v-2H149.4L149.4-3628.2z M151.9-3621.2h2.5v7h2v-7h2.5l-3.5-3.5L151.9-3621.2L151.9-3621.2z
		"/>
</g>
<g transform="translate(40,3120)">
	<path class="st0" d="M28-3104H18v-3h-3v-5c0-1.1,0.9-2,2-2h12c1.1,0,2,0.9,2,2v5h-3V-3104L28-3104z M20-3109h6v3h-6V-3109z
		 M18-3118h10v3H18V-3118z M27-3112h2v2h-2V-3112z"/>
</g>
<g transform="translate(40,3120)">
	<path class="st0" d="M28-2960H18v-3h-3v-5c0-1.1,0.9-2,2-2h12c1.1,0,2,0.9,2,2v5h-3V-2960L28-2960z M20-2965h6v3h-6V-2965z
		 M18-2974h10v3H18V-2974z M27-2968h2v2h-2V-2968z"/>
</g>
<g transform="translate(0,276)">
	<path class="st0" d="M54-20.7v-1c0-2.5-1.9-4-4-4s-4,1.5-4,4v1h-0.5c-0.8,0-1.5,0.7-1.5,1.5v7c0,0.8,0.7,1.5,1.5,1.5h9
		c0.8,0,1.5-0.7,1.5-1.5v-7c0-0.8-0.7-1.5-1.5-1.5H54z M48-15.7c0-1.1,0.9-2,2-2s2,0.9,2,2s-0.9,2-2,2C48.9-13.7,48-14.6,48-15.7z
		 M48-20.7v-1c0-1,0.7-2,2-2s2,1,2,2v1H48z"/>
</g>
<g transform="translate(52,4516)">
	<path class="st0" d="M202-4404h14v2h-14V-4404z M202-4400h6v2h-6V-4400z M202-4396h2v2h-2V-4396z M210-4400h6v2h-6V-4400z
		 M206-4396h2v2h-2V-4396z M210-4396h2v2h-2V-4396z M214-4396h2v2h-2V-4396z"/>
</g>
<g transform="translate(0,5150)">
	<path class="st0" d="M38-4979h14v2H38V-4979z M38-4985h14v4H38V-4985z M38-4974h14v1H38V-4974z"/>
</g>
<g transform="translate(52,4516)">
	<path class="st0" d="M4-4350h14v2H4V-4350z M4-4346h6v2H4V-4346z M4-4342h2v2H4V-4342z M12-4346h6v2h-6V-4346z M8-4342h2v2H8V-4342
		z M12-4342h2v2h-2V-4342z M16-4342h2v2h-2V-4342z"/>
</g>
<g transform="translate(20,6390)">
	<path class="st0" d="M-2.5-6134.2h2v0.5h-1v1h1v0.5h-2v1h3v-4h-3V-6134.2z M-2.5-6139.2h1.8l-1.8,2.1v0.9h3v-1h-1.8l1.8-2.1v-0.9
		h-3V-6139.2z M-1.5-6141.2h1v-4h-2v1h1V-6141.2z M2.5-6144.2v2h9v-2H2.5z M2.5-6132.2h9v-2h-9V-6132.2z M2.5-6137.2h9v-2h-9
		V-6137.2z"/>
</g>
<g transform="translate(40,6370)">
	<path d="M89-6253.8h12v1.5H89V-6253.8z M95-6251.5l-3,3l1.1,1.1l1.2-1.2v3.1h1.5v-3.1l1.2,1.2l1.1-1.1L95-6251.5z M95-6254.5l3-3
		l-1.1-1.1l-1.2,1.2v-3.1h-1.5v3.1l-1.2-1.2l-1.1,1.1L95-6254.5z"/>
</g>
<g transform="translate(46,3764)">
	<path class="st0" d="M-45-3727h16c0.5,0,1,0.4,1,1v14c0,0.6-0.5,1-1,1h-16c-0.5,0-1-0.4-1-1v-14l0,0C-46-3726.6-45.5-3727-45-3727
		L-45-3727z M-44-3725v12h14v-12H-44z M-33-3721.5l3,2.5l-3,2.5V-3721.5z M-41-3721.5v5l-3-2.5L-41-3721.5z M-34.5-3722h-5l2.5-3
		L-34.5-3722z M-39.5-3716h5l-2.5,3L-39.5-3716z"/>
</g>
<g transform="translate(20,4034)">
	<path class="st0" d="M157-3974h-2.2l-1.5-3h-1.5l1.5,3H151l-1.5-3H148l1.5,3h-2.2l-1.5-3H145c-0.8,0-1.5,0.7-1.5,1.5v9
		c0,0.8,0.7,1.5,1.5,1.5h12c0.8,0,1.5-0.7,1.5-1.5v-10.5h-3L157-3974z"/>
</g>
<g transform="translate(40,6470)">
	<g>
		<path class="st3" d="M104-6416h18v18h-18V-6416z"/>
		<path d="M106.2-6409.2v4.5h3l3.8,3.8v-12l-3.8,3.8L106.2-6409.2L106.2-6409.2z M116.4-6407c0-1.3-0.8-2.5-1.9-3v6
			C115.6-6404.5,116.4-6405.7,116.4-6407z M114.5-6413.6v1.5c2.2,0.6,3.8,2.7,3.8,5s-1.6,4.4-3.8,5v1.5c3-0.7,5.2-3.4,5.2-6.6
			S117.5-6412.9,114.5-6413.6z"/>
	</g>
</g>
<g transform="translate(46,3574)">
	<path class="st0" d="M164-3327.4v-2h-11c0,0-1,0-1,1v13h2l0,0v-11c0-0.7,0.2-1,1-1H164z M164-3318.4v-5.4c0-0.5,0-0.6-0.5-0.6h-5.9
		c-0.5,0-0.5,0.1-0.5,0.6v7.9c0,0.5,0,0.6,0.5,0.6h3.5v-3L164-3318.4L164-3318.4z M156-3313.4c0,0-1,0-1-1v-11c0-1,1-1,1-1h9
		c0.8,0,1,0.3,1,1v8.6l-3.6,3.4H156z"/>
</g>
<g transform="translate(20,5508)">
	<path d="M47.9-5474.2H37.4v-10.5h-1.5v10.5c0,0.8,0.7,1.5,1.5,1.5h10.5V-5474.2z M50.1-5477.2v-10.5c0-0.8-0.7-1.5-1.5-1.5h-8.2
		c-0.8,0-1.5,0.7-1.5,1.5v10.5c0,0.8,0.7,1.5,1.5,1.5h8.2C49.5-5475.8,50.1-5476.4,50.1-5477.2z M48.6-5477.2h-8.2v-10.5h8.2
		V-5477.2z"/>
</g>
<g transform="translate(0,3308)">
	<path d="M159-3186.5v1.5h-12v-1.5H159z M155.7-3192.8l-1.9,1.9v-6.1h-1.5v6.1l-1.9-1.9l-1.1,1.1l3.8,3.8l3.8-3.8L155.7-3192.8z"/>
</g>
<g transform="translate(0,4254)">
	<path class="st0" d="M218.1-4142l5.2,5.1l-2.4,5.3h2.5l1.6-3.6l4.6,4.6l1.3-1.3l-11.4-11.5L218.1-4142L218.1-4142z M221.7-4143.5
		l2,2h1.8l-0.6,1.2l1.7,1.7l1.3-2.9h3.9v-2L221.7-4143.5L221.7-4143.5z"/>
</g>
<g transform="translate(0,4254)">
	<path class="st0" d="M308.1-4087.9l5.2,5.1l-2.4,5.3h2.5l1.6-3.6l4.6,4.6l1.3-1.3l-11.5-11.5L308.1-4087.9L308.1-4087.9z
		 M311.7-4089.5l2,2h1.8l-0.5,1.2l1.7,1.7l1.3-2.9h3.9v-2H311.7L311.7-4089.5z"/>
</g>
<g transform="translate(0,5700)">
	<path class="st0" d="M136-5535h-2l-4.5,12h2l1.1-3h4.8l1.1,3h2L136-5535L136-5535z M133.4-5528l1.6-4.3l1.6,4.3H133.4L133.4-5528z"
		/>
</g>
<g transform="translate(26,2106)">
	<g>
		<polygon points="-4,-2025 0,-2025 0,-2023 2,-2023 2,-2025 6,-2025 6,-2023 8,-2023 8,-2027 7,-2027 6,-2027 2,-2027 0,-2027 
			-4,-2027 -5,-2027 -6,-2027 -6,-2023 -4,-2023 		"/>
		<circle cx="1" cy="-2019" r="2"/>
		<circle cx="7" cy="-2019" r="2"/>
		<circle cx="-5" cy="-2019" r="2"/>
		<rect x="-8" y="-2034" class="st3" width="18" height="18"/>
		<circle cx="1" cy="-2031" r="2"/>
	</g>
</g>
<g transform="translate(0,5428)">
	<path class="st0" d="M115.8-5160.4h-2.5v-7h-2v7h-2.5l3.5,3.5L115.8-5160.4L115.8-5160.4z M106.3-5155.4v2h12v-2H106.3
		L106.3-5155.4z"/>
</g>
<g transform="translate(46,3028)">
	<g>
		<polygon class="st3" points="-28,-2974 -10,-2974 -10,-2956 -28,-2956 		"/>
		<path class="st0" d="M-22-2961h5v-5.5h3.9l-6.5-6.5l-6.5,6.5h4v5.5H-22z M-26-2959h13v2h-13V-2959z"/>
	</g>
</g>
<g transform="translate(40,4034)">
	<path class="st0" d="M-24-3961c0.5,0,1,0.4,1,1v14c0,0.6-0.5,1-1,1h-14c-0.5,0-1-0.4-1-1v-14c0-0.6,0.5-1,1-1H-24z M-37-3959v12h12
		v-12H-37z M-33-3949h-2v-5h2V-3949L-33-3949z M-30-3949h-2v-8h2V-3949L-30-3949z M-27-3949h-2v-4h2V-3949L-27-3949z"/>
</g>
<g transform="translate(20,4154)">
	<path class="st0" d="M174.4-4068.2c1-1.2,1.6-2.8,1.6-4.5c0-3.9-3.1-7-7-7s-7,3.1-7,7c0,1.7,0.6,3.3,1.6,4.5H162v2h4
		c0.6,0,1-0.4,1-1v-1h-0.2l0,0c-1.6-0.8-2.8-2.5-2.8-4.5c0-2.8,2.2-5,5-5s5,2.2,5,5c0,2-1.1,3.6-2.8,4.5l0,0H171v1c0,0.6,0.4,1,1,1
		h4v-2H174.4z"/>
</g>
<g transform="translate(42,240)">
	<g>
		<path class="st3" d="M156-168h18v18h-18V-168z"/>
		<path d="M167.7-166.3c-2.1,0-3.9,1.2-4.8,2.9c-1,0.5-1.8,1.3-2.3,2.3c-1.7,0.9-2.9,2.7-2.9,4.8c0,3,2.4,5.4,5.4,5.4
			c2.1,0,3.9-1.2,4.8-2.9c1-0.5,1.8-1.3,2.3-2.3c1.7-0.9,2.9-2.7,2.9-4.8C173.1-163.9,170.7-166.3,167.7-166.3z M163.1-152.4
			c-2.1,0-3.9-1.7-3.9-3.9c0-0.9,0.3-1.7,0.8-2.3c0,3,2.4,5.4,5.4,5.4C164.8-152.7,164-152.4,163.1-152.4z M165.4-154.7
			c-2.1,0-3.9-1.7-3.9-3.9c0-0.9,0.3-1.7,0.8-2.3c0,3,2.4,5.4,5.4,5.4C167.1-155,166.3-154.7,165.4-154.7z M167.7-157
			c-2.1,0-3.9-1.7-3.9-3.9s1.7-3.9,3.9-3.9s3.9,1.7,3.9,3.9C171.6-158.7,169.9-157,167.7-157z"/>
		<path class="st3" d="M156-168h18v18h-18V-168z"/>
	</g>
</g>
<g transform="translate(40,3308)">
	<g transform="translate(2 2)">
		<rect x="182.5" y="-3068.7" class="st0" width="9" height="2"/>
		<rect x="182.5" y="-3063.7" class="st0" width="9" height="2"/>
		<rect x="182.5" y="-3058.7" class="st0" width="9" height="2"/>
		<circle class="st0" cx="179.5" cy="-3067.7" r="1.5"/>
		<circle class="st0" cx="179.5" cy="-3062.7" r="1.5"/>
		<circle class="st0" cx="179.5" cy="-3057.7" r="1.5"/>
	</g>
</g>
<g transform="translate(40,4968)">
	<path class="st0" d="M-26.2-4741.5c0-3.3-5-9-5-9s-0.8,1-1.8,2.3L-26.2-4741.5L-26.2-4741.5L-26.2-4741.5z M-36.5-4749.2l-1.3,1.3
		l2.9,2.9c-0.7,1.2-1.2,2.5-1.2,3.6c0,2.8,2.2,5,5,5c1.3,0,2.5-0.5,3.4-1.3l2.3,2.3l1.3-1.3L-36.5-4749.2L-36.5-4749.2z"/>
</g>
<g transform="translate(26,2206)">
	<g>
		<path class="st0" d="M-11.5-2032.6c0,0-1.5,1.6-1.5,2.6c0,0.8,0.7,1.5,1.5,1.5s1.5-0.7,1.5-1.5C-10-2031-11.5-2032.6-11.5-2032.6
			L-11.5-2032.6z M-13.3-2034.7l-6.8-6.8l-1.1,1.1l1.6,1.6l-4.1,4.1c-0.4,0.4-0.4,1,0,1.4l4.5,4.5c0.2,0.2,0.5,0.3,0.7,0.3
			s0.5-0.1,0.7-0.3l4.5-4.5C-12.9-2033.7-12.9-2034.3-13.3-2034.7L-13.3-2034.7z M-21.8-2034.5l3.3-3.3l3.3,3.3H-21.8L-21.8-2034.5z
			"/>
	</g>
</g>
<g transform="translate(20,296)">
	<polygon class="st0" points="110.5,-150 110.5,-139 113.5,-142 117,-136 118.5,-137 115,-143 119.5,-143 	"/>
</g>
<g transform="translate(0,3594)">
	<path class="st0" d="M151.7-3424.7l-4,4l1,1l-3,3h4l1-1l0,0l1,1l4-4L151.7-3424.7L151.7-3424.7z M156-3429c0.4-0.4,1-0.4,1.4,0
		l2.6,2.6c0.4,0.4,0.4,1,0,1.4l-3.3,3.3l-4-4L156-3429z"/>
</g>
<g transform="translate(0,984)">
	<g>
		<g>
			<path class="st0" d="M251-727.1h18v18h-18V-727.1z"/>
		</g>
	</g>
</g>
<g transform="translate(20,1416)">
	<path class="st0" d="M7.5-1248.4l-6.5,6.5v2.9h2.9l6.5-6.5L7.5-1248.4z M12.9-1248c0.2-0.2,0.2-0.5,0-0.7l-2.2-2.2
		c-0.2-0.2-0.5-0.2-0.7,0l-1.4,1.4l2.9,2.9L12.9-1248L12.9-1248z"/>
</g>
<g transform="translate(0,5150)">
	<path class="st0" d="M20-4961h14v2H20V-4961z M20-4967h14v4H20V-4967z M20-4956h14v1H20V-4956z"/>
</g>
<g transform="translate(52,4516)">
	<path class="st0" d="M-14-4332H0v2h-14V-4332z M-14-4328h6v2h-6V-4328z M-14-4324h2v2h-2V-4324z M-6-4328h6v2h-6V-4328z M-10-4324
		h2v2h-2V-4324z M-6-4324h2v2h-2V-4324z M-2-4324h2v2h-2V-4324z"/>
</g>
<g transform="translate(20,1416)">
	<path class="st0" d="M-10.5-1230.4l-6.5,6.5v2.9h2.9l6.5-6.5L-10.5-1230.4z M-5.2-1230c0.2-0.2,0.2-0.5,0-0.7l-2.2-2.2
		c-0.2-0.2-0.5-0.2-0.7,0l-1.4,1.4l2.9,2.9L-5.2-1230L-5.2-1230z"/>
</g>
<g transform="translate(0,3008)">
	<path class="st0" d="M87-2914.5h-2v1h2v1h-1c-0.6,0-1,0.4-1,1v2h3v-1h-2v-1h1c0.6,0,1-0.4,1-1v-1C88-2914.1,87.6-2914.5,87-2914.5z
		 M79-2908l3,4.5h1.9l-3.4-5.5l3.5-5.5h-2l-3,4.5l-3-4.5h-2l3.5,5.5l-3.5,5.5h2L79-2908z"/>
</g>
<g transform="translate(52,3810)">
	<path class="st0" d="M53-3710.5h-2v1h2v1h-1c-0.5,0-1,0.4-1,1v2h3v-1h-2v-1h1c0.5,0,1-0.4,1-1v-1C54-3710.1,53.5-3710.5,53-3710.5z
		 M45-3710l3,4.5h1.9l-3.4-5.5l3.5-5.5h-2l-3,4.5l-3-4.5h-2l3.5,5.5l-3.5,5.5h2L45-3710z"/>
</g>
<g transform="translate(26,6226)">
	<g transform="translate(2 3)">
		<polygon class="st5" points="15,-6154 10.5,-6142 15,-6142 16.1,-6145 18.4,-6145 19.5,-6142 24,-6142 19.5,-6154 		"/>
		<path class="st0" d="M16.5-6154h-2l-4.5,12h2l1.1-3h4.8l1.1,3h2L16.5-6154L16.5-6154z M13.9-6147l1.6-4.3l1.6,4.3H13.9L13.9-6147z
			"/>
	</g>
</g>
<g transform="translate(0,1330)">
	<path class="st0" d="M73-1200c0-0.6,0.4-1,1-1h14c0.6,0,1,0.5,1,1v10c0,0.6-0.4,1-1,1H74c-0.6,0-1-0.5-1-1V-1200z M77-1193v2h8v-2
		H77z M74-1199v2h2v-2H74z M77-1199v2h2v-2H77z M80-1199v2h2v-2H80z M83-1199v2h2v-2H83z M86-1199v2h2v-2H86z M74-1196v2h2v-2H74z
		 M77-1196v2h2v-2H77z M80-1196v2h2v-2H80z M83-1196v2h2v-2H83z M86-1196v2h2v-2H86z"/>
</g>
<g transform="translate(52,2054)">
	<path class="st0" d="M-10-1930H0v-2h-10V-1930z M-14-1934H0v-2h-14V-1934z M-14-1944v2H0v-2H-14z M-10-1938H0v-2h-10V-1938z"/>
</g>
<g transform="translate(52,2054)">
	<path class="st0" d="M-30-1930h10v-2h-10V-1930z M-32-1934h14v-2h-14V-1934z M-32-1944v2h14v-2H-32z M-30-1938h10v-2h-10V-1938z"/>
</g>
<g transform="translate(20,2664)">
	<path class="st0" d="M56.3-2586.4l-2.3,2.3v-5.9h5.9l-2.3,2.3l10.3,10.4l-1.4,1.4L56.3-2586.4z"/>
</g>
<g transform="translate(0,1064)">
	<polygon class="st0" points="5,-859 9,-855 13,-859 	"/>
</g>
<g transform="translate(0,1064)">
	<polygon class="st0" points="23,-853 31,-857 23,-861 	"/>
</g>
<g transform="translate(42,904)">
	<path d="M-12.4-888.2h-7.4c-0.5,0-0.9-0.3-1.2-0.7l-1.7-3c-0.2-0.4-0.2-0.9,0-1.3l4.5-7.8c0.2-0.4,0.7-0.7,1.2-0.7h3.4
		c0.5,0,0.9,0.2,1.2,0.7l3.3,5.7c-0.3,0-0.5-0.1-0.8-0.1s-0.5,0-0.8,0.1l-2.9-5H-17l-4.5,7.8l1.7,3h6.3
		C-13.2-889.1-12.9-888.6-12.4-888.2z M-7.2-892.1h-2v-2h-1.4v2h-2v1.3h2v2h1.4v-2h2C-7.2-890.7-7.2-892.1-7.2-892.1z M-17.3-892.8
		l2.1-3.6l1.8,3.2c0.2-0.4,0.5-0.8,0.9-1.2l-2.1-3.6h-1.3l-3.2,5.7l0.5,0.9h4.7c0-0.5,0.1-0.9,0.2-1.3L-17.3-892.8L-17.3-892.8z"/>
</g>
<g transform="translate(22,2350)">
	<path class="st0" d="M20.7-2295.8c3.6,0,6.5,2.9,6.5,6.5c0,1.4-0.5,2.8-1.2,3.8l5.8,5.8l-1.4,1.4l-5.8-5.8
		c-1.1,0.8-2.4,1.2-3.8,1.2c-3.6,0-6.5-2.9-6.5-6.5S17.1-2295.8,20.7-2295.8z M20.7-2293.8c-2.5,0-4.5,2-4.5,4.5s2,4.5,4.5,4.5
		s4.5-2,4.5-4.5S23.2-2293.8,20.7-2293.8z"/>
</g>
<g transform="translate(26,5196)">
	<path d="M97-4988h-5v5h-2v-5h-5v-2h5v-5h2v5h5v1.5V-4988z"/>
</g>
<g transform="translate(20,1594)">
	<rect x="108" y="-1388" class="st0" width="14" height="2"/>
</g>
<g transform="translate(26,6610)">
	<path class="st0" d="M-19-6607.2h-4c-0.8,0-1.5,0.7-1.5,1.5v9c0,0.8,0.7,1.5,1.5,1.5h12c0.8,0,1.5-0.7,1.5-1.5v-7.5
		c0-0.8-0.7-1.5-1.5-1.5h-6.5L-19-6607.2z M-23-6604.2h12v7.5h-12V-6604.2z M-18.1-6602.4l1.1-1.1l3,3l-3,3l-1.1-1.1l1.2-1.2H-20
		v-1.5h3.1L-18.1-6602.4z"/>
</g>
<g transform="translate(0,0)">
	<g>
		<path class="st6" d="M233,63l-8-7l0.1,4H217v6h8.1v4L233,63z"/>
	</g>
</g>
<g transform="translate(20,5614)">
	<g>
		<path class="st6" d="M215-5559h16v13h-7l-3,3l-3-3h-3V-5559z"/>
	</g>
</g>
<g transform="translate(20,6470)">
	<path class="st6" d="M243-6409v-5h-4v5h-5v4h5v5h4v-5h5v-4H243z"/>
</g>
<g transform="translate(20,6510)">
	<g>
		<path class="st6" d="M179-6454h16v14h-16V-6454z"/>
	</g>
</g>
<g transform="translate(0,6616)">
	<g transform="translate(1 2)">
	</g>
</g>
<g>
	<g>
		<g>
			<g>
				<defs>
					<path id="SVGID_1_" d="M127.3,81l5-7h9.5c0.8,0,1.2,0.6,0.8,1.3l-3.3,5.7l3.3,5.7c0.4,0.7,0.1,1.3-0.8,1.3h-9.5L127.3,81z"/>
				</defs>
				<clipPath id="SVGID_2_">
					<use xlink:href="#SVGID_1_"  style="overflow:visible;"/>
				</clipPath>
				<path class="st7" d="M127.3,81l5-7h9.5c0.8,0,1.2,0.6,0.8,1.3l-3.3,5.7l3.3,5.7c0.4,0.7,0.1,1.3-0.8,1.3h-9.5L127.3,81z"/>
			</g>
		</g>
	</g>
</g>
<g>
	<g>
		<g>
			<g>
				<defs>
					<path id="SVGID_3_" d="M199.3,153l5-7h9.5c0.8,0,1.2,0.6,0.8,1.3l-3.3,5.7l3.3,5.7c0.4,0.7,0.1,1.3-0.8,1.3h-9.5L199.3,153z"/>
				</defs>
				<clipPath id="SVGID_4_">
					<use xlink:href="#SVGID_3_"  style="overflow:visible;"/>
				</clipPath>
				<path class="st8" d="M199.3,153l5-7h9.5c0.8,0,1.2,0.6,0.8,1.3l-3.3,5.7l3.3,5.7c0.4,0.7,0.1,1.3-0.8,1.3h-9.5L199.3,153z"/>
			</g>
		</g>
	</g>
</g>
<g transform="translate(26,3790)">
	<path class="st0" d="M144.8-3667h9v-2h-9V-3667L144.8-3667z M144.8-3679v2h9v-2H144.8L144.8-3679z M143.2-3677l-3.5-3.5l-3.5,3.5
		h2.5v8h-2.5l3.5,3.5l3.5-3.5h-2.5v-8H143.2L143.2-3677z M144.8-3672h9v-2h-9V-3672L144.8-3672z"/>
</g>
<g transform="translate(26,3790)">
	<path class="st0" d="M198.8-3613h9v-2h-9V-3613L198.8-3613z M198.8-3625v2h9v-2H198.8L198.8-3625z M197.2-3623l-3.5-3.5l-3.5,3.5
		h2.5v8h-2.5l3.5,3.5l3.5-3.5h-2.5v-8H197.2L197.2-3623z M198.8-3618h9v-2h-9V-3618L198.8-3618z"/>
</g>
<g transform="translate(0,3140)">
	<g>
		<path d="M69.4-3009.5c-1.9,0.5-4.3,0.8-6.4,0.8s-4.4-0.2-6.4-0.8l-0.4,1.5c1.4,0.4,3,0.6,4.5,0.8v9.8h1.5v-4.5h1.5v4.5h1.5v-9.8
			c1.5-0.1,3.1-0.4,4.5-0.8L69.4-3009.5z M63-3009.5c0.8,0,1.5-0.7,1.5-1.5s-0.7-1.5-1.5-1.5s-1.5,0.7-1.5,1.5
			S62.2-3009.5,63-3009.5z"/>
		<path class="st3" d="M54-3014h18v18H54V-3014z"/>
	</g>
</g>
<g transform="translate(20,2948)">
	<path class="st0" d="M-17-2821c-0.6,0-1,0.4-1,1c0,0,0-0.2,0,0.8v10.7c0,1,0,0.6,0,0.6c0,0.6,0.4,1,1,1h4l2,2l2-2h3.1H-5
		c0.6,0,1-0.4,1-1v-11.2c0-1,0-0.8,0-0.8c0-0.6-0.5-1-1-1L-17-2821L-17-2821z M-11-2809l-1.2-3.6l-3.2-1.4l3.2-1.4l1.2-3.6l1.2,3.6
		l3.2,1.4l-3.2,1.4L-11-2809z"/>
</g>
<g transform="translate(0,5720)">
	<path class="st6" d="M47-5589.5l4,4.5l-4,4.5 M43-5589.5l-4,4.5l4,4.5"/>
</g>
<g transform="translate(20,5902)">
	<path d="M256-5792.1c-1.7,0-3,1.3-3,3v5.2c0,0.8,0.7,1.5,1.5,1.5h2.2v3c0,0.8,0.7,1.5,1.5,1.5h1.5c0.8,0,1.5-0.7,1.5-1.5v-3h2.2
		c0.8,0,1.5-0.7,1.5-1.5v-8.2H256z M256-5790.6h3v1.5h1.5v-1.5h0.8v3h1.5v-3h0.8v3.8h-9v-2.2C254.5-5790,255.2-5790.6,256-5790.6z
		 M254.5-5783.9v-1.5h9v1.5H254.5z"/>
</g>
<g transform="translate(0,1416)">
	<path class="st0" d="M26-1276.1c-2.8-0.5-5-2.9-5-5.9h1.5c0,2.5,2,4.5,4.5,4.5s4.5-2,4.5-4.5H33c0,3-2.2,5.4-5,5.9v3.1h-2V-1276.1z
		 M27-1279c-1.4,0-2.5-1.1-2.5-2.5v-5c0-1.4,1.1-2.5,2.5-2.5s2.5,1.1,2.5,2.5v5C29.5-1280.1,28.4-1279,27-1279z"/>
</g>
<g transform="translate(46,418)">
	<g>
		<path d="M30.5-360c2.5,0,4.5,2,4.5,4.6v0.4h-8.6c-0.2,0-0.4-0.2-0.4-0.4C26-358,28-360,30.5-360z M40-359.5c0,2.5-2,4.5-4.6,4.5
			H35v-8.6c0-0.2,0.2-0.4,0.4-0.4C38-364,40-362,40-359.5z M39.5-350c-2.5,0-4.5-2-4.5-4.6v-0.4h8.6c0.2,0,0.4,0.2,0.4,0.4
			C44-352,42-350,39.5-350z M30-350.5c0-2.5,2-4.5,4.6-4.5H35v8.6c0,0.2-0.2,0.4-0.4,0.4C32-346,30-348,30-350.5z"/>
	</g>
</g>
<g transform="translate(26,6106)">
	<path d="M88.6-6050l-1.5,2h-2.5c-0.9,0-1.6,0.7-1.6,1.6v8.9c0,0.9,0.7,1.6,1.6,1.6h12.8c0.9,0,1.6-0.7,1.6-1.6v-8.9
		c0-0.9-0.7-1.6-1.6-1.6h-2.5l-1.5-2H88.6z M91-6038.8c-2.2,0-4-1.7-4-3.7s1.8-3.7,4-3.7s4,1.7,4,3.7S93.2-6038.8,91-6038.8z
		 M91-6040.2c1.4,0,2.5-1,2.5-2.3s-1.1-2.3-2.5-2.3s-2.5,1-2.5,2.3S89.6-6040.2,91-6040.2z"/>
</g>
<g transform="translate(0,4356)">
	<g>
		<path class="st3" d="M54-4302h18v18H54V-4302z"/>
		<path d="M69.2-4290.6l-1.7,3h-9.1l-1.7-3l4.5-7.8h3.4L69.2-4290.6z M61.3-4299.8c-0.5,0-0.9,0.2-1.2,0.7l-4.5,7.8
			c-0.2,0.4-0.2,0.9,0,1.4l1.7,3c0.2,0.4,0.7,0.7,1.2,0.7h9.1c0.5,0,0.9-0.3,1.2-0.7l1.7-3c0.2-0.4,0.2-0.9,0-1.4l-4.6-7.8
			c-0.2-0.4-0.7-0.7-1.2-0.7H61.3z M63-4294.4l2.1,3.6h-4.2L63-4294.4z M62.4-4296l-3.2,5.7l0.5,0.9h6.7l0.5-0.9l-3.2-5.7H62.4z"/>
	</g>
</g>
<g transform="translate(40,1330)">
	<path d="M-25-1176.2h-5.2v5.2h-1.5v-5.2H-37v-1.5h5.2v-5.2h1.5v5.2h5.2L-25-1176.2L-25-1176.2z"/>
</g>
<g transform="translate(46,3764)">
	<path class="st0" d="M63-3619h16c0.6,0,1,0.4,1,1v14c0,0.6-0.4,1-1,1H63c-0.5,0-1-0.4-1-1v-14l0,0C62-3618.6,62.5-3619,63-3619
		L63-3619z M64-3617v12h14v-12H64z M75-3613.5l3,2.5l-3,2.5V-3613.5z M67-3613.5v5l-3-2.5L67-3613.5z M73.5-3614h-5l2.5-3L73.5-3614
		z M68.5-3608h5l-2.5,3L68.5-3608z"/>
</g>
<g transform="translate(0,2376)">
	<path class="st0" d="M125-2190.6v9.3c0,1-0.8,1.8-1.8,1.8h-12.4c-1,0-1.8-0.8-1.8-1.8v-9.3v3.1h2v6h12v-6h2
		C125-2187.5,125-2190.6,125-2190.6z M114.5-2187.5l2,2.5l2.5-3.5l3,5h-10L114.5-2187.5z M110.9-2192.6l-1.9-1.9v5h5l-1.8-1.8
		c1.1-0.8,2.6-1.4,4.2-1.4c2.8,0,3.8,0.9,4.6,3.2h2c-1.1-3-3-5-6.6-5C114.3-2194.5,112.3-2193.7,110.9-2192.6z"/>
</g>
<g transform="translate(0,2126)">
	<polygon class="st0" points="39,-1916.7 40.4,-1915.3 45,-1919.9 49.6,-1915.3 51,-1916.7 45,-1922.7 	"/>
</g>
<g transform="translate(0,2126)">
	<polygon class="st0" points="69,-1921.3 67.6,-1922.7 63,-1918.1 58.4,-1922.7 57,-1921.3 63,-1915.3 	"/>
</g>
<g transform="translate(0,2126)">
	<polygon class="st0" points="83.3,-1913 84.7,-1914.4 80.1,-1919 84.7,-1923.6 83.3,-1925 77.3,-1919 	"/>
</g>
<g transform="translate(0,2126)">
	<polygon class="st0" points="96.7,-1925 95.3,-1923.6 99.9,-1919 95.3,-1914.4 96.7,-1913 102.7,-1919 	"/>
</g>
</svg>
